# xmcd
#
# Track frame offsets: 
#        150
#        16249
#        32140
#        64948
#        81084
#        95614
#        106937
#        120478
#        134621
#        153854
#        167727
#        183822
#        199697
#        217257
#        235825
#        253535
#        273123
#        284055
#        297632
#        311193
#        328456
#
# Disc length: 4627 seconds
#
# Revision: 0
# Processed by: cddbd v1.5.2PL0 Copyright (c) Steve Scherf et al.
# Submitted via: ExactAudioCopy v1.1
#
DISCID=40121115
DTITLE=Various Artist - Radio 1 - Sporza - Studio France 2019 - CD 2
DYEAR=2019
DGENRE=Chanson
TTITLE0=Stromae - Formidable
TTITLE1=Charles Aznavour - Emmenez-Moi
TTITLE2=Dalida - Gigi L'Amoroso (Gigi L'Amour)
TTITLE3=Indila - Dernière Danse
TTITLE4=Joe Dassin - Si Tu T'Appelles Mélancolie
TTITLE5=Brigitte Bardot - Harley Davidson
TTITLE6=Pierre Groscolas - Lady Lay
TTITLE7=Angèle - Balance Ton Quoi
TTITLE8=La Compagnie Créole - C'Est Bon Pour Le Moral
TTITLE9=Lou And The Hollywood Bananas - Kingston, Kingston
TTITLE10=Lio - Amoureux Solitaires
TTITLE11=Vicky Leandros - Après Toi
TTITLE12=Nâdiya Feat. Smartzee - Et C'Est Parti
TTITLE13=Guesch Patti - Etienne
TTITLE14=Maître Gims - Est-Ce Que Tu M'Aimes
TTITLE15=Jean-Jacques Goldman and Michael Jones - Je Te Donne
TTITLE16=Michel Fugain - Le Printemps
TTITLE17=Séverine - Un Banc, Un Arbre, Une Rue
TTITLE18=Jean Vallée - L'Amour Ca Fait Chanter La Vie
TTITLE19=Michel Delpech - Wight Is Wight
TTITLE20=Claude François - Comme D'Habitude
EXTD=
EXTT0=
EXTT1=
EXTT2=
EXTT3=
EXTT4=
EXTT5=
EXTT6=
EXTT7=
EXTT8=
EXTT9=
EXTT10=
EXTT11=
EXTT12=
EXTT13=
EXTT14=
EXTT15=
EXTT16=
EXTT17=
EXTT18=
EXTT19=
EXTT20=
PLAYORDER=
